{
	"asset":{
		"version":"2.0",
		"generator":"MAXON CINEMA 4D Studio (R17) 17.016 (#200000219)"
	},
	"scenes":[{
		"nodes":[0]
	}],
	"nodes":[{
		"name":"Null.1",
		"translation":[-1.8456465005874634,
		0.36196523904800417,
		0.8624328374862671],
		"rotation":[0.0,
		0.0,
		0.0,
		-1.0],
		"scale":[1.0,
		1.0,
		1.0],
		"children":[1,
		2,
		3,
		4,
		5,
		6,
		7,
		8,
		9,
		10,
		11,
		12]
	},
	{
		"name":"Cube.10",
		"mesh":0,
		"translation":[-0.01769443042576313,
		1.0180389881134034,
		-0.8677639365196228],
		"rotation":[0.03453150764107704,
		-0.7062631249427795,
		0.7062631249427795,
		-0.03453149273991585],
		"scale":[1.0,
		1.0,
		1.0]
	},
	{
		"name":"Cube.9",
		"mesh":1,
		"translation":[-0.017694424837827684,
		1.0180389881134034,
		-0.6477639079093933],
		"rotation":[0.03453151136636734,
		-0.7062631249427795,
		0.7062631249427795,
		-0.03453148901462555],
		"scale":[1.0,
		1.0,
		1.0]
	},
	{
		"name":"Cube.8",
		"mesh":2,
		"translation":[-0.01769442856311798,
		1.0180389881134034,
		-0.7577639222145081],
		"rotation":[0.03453151136636734,
		-0.7062631249427795,
		0.7062631249427795,
		-0.03453148901462555],
		"scale":[1.0,
		1.0,
		1.0]
	},
	{
		"name":"Cube.7",
		"mesh":3,
		"translation":[0.012709850445389748,
		0.7078571915626526,
		-0.7588927149772644],
		"rotation":[0.048834916204214099,
		-0.9988068342208862,
		2.058010650785036e-8,
		1.7265692875412243e-8],
		"scale":[1.0,
		1.0,
		1.0]
	},
	{
		"name":"Cube.6",
		"mesh":4,
		"translation":[-0.04795368015766144,
		1.3267412185668946,
		-0.7588927745819092],
		"rotation":[0.048834916204214099,
		-0.9988068342208862,
		2.058010650785036e-8,
		1.7265692875412243e-8],
		"scale":[1.0,
		1.0,
		1.0]
	},
	{
		"name":"Cube.5",
		"mesh":5,
		"translation":[0.3428480923175812,
		-0.17100155353546143,
		-1.057210922241211],
		"rotation":[1.290478479631929e-8,
		-0.7071067690849304,
		1.2904783908140871e-8,
		-0.7071067690849304],
		"scale":[1.0,
		1.0,
		1.0]
	},
	{
		"name":"Cube.4",
		"mesh":6,
		"translation":[0.34714895486831667,
		-0.17100155353546143,
		-0.4527112543582916],
		"rotation":[1.290478479631929e-8,
		-0.7071067690849304,
		1.2904783908140871e-8,
		-0.7071067690849304],
		"scale":[1.0,
		1.0,
		1.0]
	},
	{
		"name":"Cube.3",
		"mesh":7,
		"translation":[0.34714895486831667,
		0.33363595604896548,
		-0.4608782231807709],
		"rotation":[1.4901161193847657e-8,
		-0.7071067690849304,
		1.4901161193847657e-8,
		-0.7071067690849304],
		"scale":[1.0,
		1.0,
		1.0]
	},
	{
		"name":"Cube.2",
		"mesh":8,
		"translation":[0.3428480923175812,
		0.33363595604896548,
		-1.0546495914459229],
		"rotation":[1.4901161193847657e-8,
		-0.7071067690849304,
		1.4901161193847657e-8,
		-0.7071067690849304],
		"scale":[1.0,
		1.0,
		1.0]
	},
	{
		"name":"Cube.1",
		"mesh":9,
		"translation":[0.6264200210571289,
		0.33363595604896548,
		-0.7577639222145081],
		"rotation":[0.0,
		0.0,
		0.0,
		-1.0],
		"scale":[1.0,
		1.0,
		1.0]
	},
	{
		"name":"Cube",
		"mesh":10,
		"translation":[0.031112128868699075,
		0.33363595604896548,
		-0.7577639222145081],
		"rotation":[0.0,
		0.0,
		0.0,
		-1.0],
		"scale":[1.0,
		1.0,
		1.0]
	},
	{
		"name":"Seat",
		"mesh":11,
		"translation":[0.34714895486831667,
		0.3928588628768921,
		-0.7577639222145081],
		"rotation":[0.0,
		0.0,
		0.0,
		-1.0],
		"scale":[1.0,
		1.0,
		1.0]
	}],
	"meshes":[{
		"name":"Cube.10",
		"primitives":[{
			"attributes":{
				"POSITION":1,
				"NORMAL":2,
				"TEXCOORD_0":3
			},
			"indices":0,
			"material":0
		}]
	},
	{
		"name":"Cube.9",
		"primitives":[{
			"attributes":{
				"POSITION":5,
				"NORMAL":6,
				"TEXCOORD_0":7
			},
			"indices":4,
			"material":0
		}]
	},
	{
		"name":"Cube.8",
		"primitives":[{
			"attributes":{
				"POSITION":9,
				"NORMAL":10,
				"TEXCOORD_0":11
			},
			"indices":8,
			"material":0
		}]
	},
	{
		"name":"Cube.7",
		"primitives":[{
			"attributes":{
				"POSITION":13,
				"NORMAL":14
			},
			"indices":12,
			"material":0
		}]
	},
	{
		"name":"Cube.6",
		"primitives":[{
			"attributes":{
				"POSITION":16,
				"NORMAL":17
			},
			"indices":15,
			"material":0
		}]
	},
	{
		"name":"Cube.5",
		"primitives":[{
			"attributes":{
				"POSITION":19,
				"NORMAL":20,
				"TEXCOORD_0":21
			},
			"indices":18,
			"material":0
		}]
	},
	{
		"name":"Cube.4",
		"primitives":[{
			"attributes":{
				"POSITION":23,
				"NORMAL":24,
				"TEXCOORD_0":25
			},
			"indices":22,
			"material":0
		}]
	},
	{
		"name":"Cube.3",
		"primitives":[{
			"attributes":{
				"POSITION":27,
				"NORMAL":28,
				"TEXCOORD_0":29
			},
			"indices":26,
			"material":0
		}]
	},
	{
		"name":"Cube.2",
		"primitives":[{
			"attributes":{
				"POSITION":31,
				"NORMAL":32,
				"TEXCOORD_0":33
			},
			"indices":30,
			"material":0
		}]
	},
	{
		"name":"Cube.1",
		"primitives":[{
			"attributes":{
				"POSITION":35,
				"NORMAL":36,
				"TEXCOORD_0":37
			},
			"indices":34,
			"material":0
		}]
	},
	{
		"name":"Cube",
		"primitives":[{
			"attributes":{
				"POSITION":39,
				"NORMAL":40,
				"TEXCOORD_0":41
			},
			"indices":38,
			"material":0
		}]
	},
	{
		"name":"Seat",
		"primitives":[{
			"attributes":{
				"POSITION":43,
				"NORMAL":44,
				"TEXCOORD_0":45
			},
			"indices":42,
			"material":0
		}]
	}],
	"accessors":[{
		"bufferView":0,
		"type":"SCALAR",
		"componentType":5123,
		"count":612,
		"byteOffset":0,
		"min":[0],
		"max":[611]
	},
	{
		"bufferView":1,
		"type":"VEC3",
		"componentType":5126,
		"count":612,
		"byteOffset":0,
		"min":[-0.020051753148436548,
		-0.02506469190120697,
		-0.281727135181427],
		"max":[0.020051753148436548,
		0.02506469190120697,
		0.281727135181427]
	},
	{
		"bufferView":1,
		"type":"VEC3",
		"componentType":5126,
		"count":612,
		"byteOffset":12,
		"min":[-0.9832747578620911,
		-0.9865118861198425,
		-0.9832747578620911],
		"max":[0.9832747578620911,
		0.9865118861198425,
		0.9832747578620911]
	},
	{
		"bufferView":1,
		"type":"VEC2",
		"componentType":5126,
		"count":612,
		"byteOffset":24,
		"min":[0.0,
		0.0],
		"max":[1.0,
		1.0]
	},
	{
		"bufferView":2,
		"type":"SCALAR",
		"componentType":5123,
		"count":612,
		"byteOffset":0,
		"min":[0],
		"max":[611]
	},
	{
		"bufferView":3,
		"type":"VEC3",
		"componentType":5126,
		"count":612,
		"byteOffset":0,
		"min":[-0.020051753148436548,
		-0.02506469190120697,
		-0.281727135181427],
		"max":[0.020051753148436548,
		0.02506469190120697,
		0.281727135181427]
	},
	{
		"bufferView":3,
		"type":"VEC3",
		"componentType":5126,
		"count":612,
		"byteOffset":12,
		"min":[-0.9832747578620911,
		-0.9865118861198425,
		-0.9832747578620911],
		"max":[0.9832747578620911,
		0.9865118861198425,
		0.9832747578620911]
	},
	{
		"bufferView":3,
		"type":"VEC2",
		"componentType":5126,
		"count":612,
		"byteOffset":24,
		"min":[0.0,
		0.0],
		"max":[1.0,
		1.0]
	},
	{
		"bufferView":4,
		"type":"SCALAR",
		"componentType":5123,
		"count":612,
		"byteOffset":0,
		"min":[0],
		"max":[611]
	},
	{
		"bufferView":5,
		"type":"VEC3",
		"componentType":5126,
		"count":612,
		"byteOffset":0,
		"min":[-0.020051753148436548,
		-0.02506469190120697,
		-0.281727135181427],
		"max":[0.020051753148436548,
		0.02506469190120697,
		0.281727135181427]
	},
	{
		"bufferView":5,
		"type":"VEC3",
		"componentType":5126,
		"count":612,
		"byteOffset":12,
		"min":[-0.9832747578620911,
		-0.9865118861198425,
		-0.9832747578620911],
		"max":[0.9832747578620911,
		0.9865118861198425,
		0.9832747578620911]
	},
	{
		"bufferView":5,
		"type":"VEC2",
		"componentType":5126,
		"count":612,
		"byteOffset":24,
		"min":[0.0,
		0.0],
		"max":[1.0,
		1.0]
	},
	{
		"bufferView":6,
		"type":"SCALAR",
		"componentType":5123,
		"count":2148,
		"byteOffset":0,
		"min":[0],
		"max":[2147]
	},
	{
		"bufferView":7,
		"type":"VEC3",
		"componentType":5126,
		"count":2148,
		"byteOffset":0,
		"min":[-0.020051753148436548,
		-0.030077630653977395,
		-0.2549999952316284],
		"max":[0.020051753148436548,
		0.030077630653977395,
		0.2549999952316284]
	},
	{
		"bufferView":7,
		"type":"VEC3",
		"componentType":5126,
		"count":2148,
		"byteOffset":12,
		"min":[-0.9914481043815613,
		-0.9914481043815613,
		-0.9833568334579468],
		"max":[0.9914481043815613,
		0.9914481043815613,
		0.9833568334579468]
	},
	{
		"bufferView":8,
		"type":"SCALAR",
		"componentType":5123,
		"count":2148,
		"byteOffset":0,
		"min":[0],
		"max":[2147]
	},
	{
		"bufferView":9,
		"type":"VEC3",
		"componentType":5126,
		"count":2148,
		"byteOffset":0,
		"min":[-0.020051753148436548,
		-0.030077630653977395,
		-0.2709999978542328],
		"max":[0.020051753148436548,
		0.030077630653977395,
		0.2709999978542328]
	},
	{
		"bufferView":9,
		"type":"VEC3",
		"componentType":5126,
		"count":2148,
		"byteOffset":12,
		"min":[-0.9914481043815613,
		-0.9914481043815613,
		-0.9833568334579468],
		"max":[0.9914481043815613,
		0.9914481043815613,
		0.9833568334579468]
	},
	{
		"bufferView":10,
		"type":"SCALAR",
		"componentType":5123,
		"count":612,
		"byteOffset":0,
		"min":[0],
		"max":[611]
	},
	{
		"bufferView":11,
		"type":"VEC3",
		"componentType":5126,
		"count":612,
		"byteOffset":0,
		"min":[-0.020051753148436548,
		-0.030077630653977395,
		-0.2656857371330261],
		"max":[0.020051753148436548,
		0.030077630653977395,
		0.2656857371330261]
	},
	{
		"bufferView":11,
		"type":"VEC3",
		"componentType":5126,
		"count":612,
		"byteOffset":12,
		"min":[-0.9832747578620911,
		-0.9865118861198425,
		-0.9832747578620911],
		"max":[0.9832747578620911,
		0.9865118861198425,
		0.9832747578620911]
	},
	{
		"bufferView":11,
		"type":"VEC2",
		"componentType":5126,
		"count":612,
		"byteOffset":24,
		"min":[0.0,
		0.0],
		"max":[1.0,
		1.0]
	},
	{
		"bufferView":12,
		"type":"SCALAR",
		"componentType":5123,
		"count":612,
		"byteOffset":0,
		"min":[0],
		"max":[611]
	},
	{
		"bufferView":13,
		"type":"VEC3",
		"componentType":5126,
		"count":612,
		"byteOffset":0,
		"min":[-0.020051753148436548,
		-0.030077630653977395,
		-0.2656857371330261],
		"max":[0.020051753148436548,
		0.030077630653977395,
		0.2656857371330261]
	},
	{
		"bufferView":13,
		"type":"VEC3",
		"componentType":5126,
		"count":612,
		"byteOffset":12,
		"min":[-0.9832747578620911,
		-0.9865118861198425,
		-0.9832747578620911],
		"max":[0.9832747578620911,
		0.9865118861198425,
		0.9832747578620911]
	},
	{
		"bufferView":13,
		"type":"VEC2",
		"componentType":5126,
		"count":612,
		"byteOffset":24,
		"min":[0.0,
		0.0],
		"max":[1.0,
		1.0]
	},
	{
		"bufferView":14,
		"type":"SCALAR",
		"componentType":5123,
		"count":612,
		"byteOffset":0,
		"min":[0],
		"max":[611]
	},
	{
		"bufferView":15,
		"type":"VEC3",
		"componentType":5126,
		"count":612,
		"byteOffset":0,
		"min":[-0.029930168762803079,
		-0.03849315270781517,
		-0.2506469190120697],
		"max":[0.029930168762803079,
		0.03849315270781517,
		0.2506469190120697]
	},
	{
		"bufferView":15,
		"type":"VEC3",
		"componentType":5126,
		"count":612,
		"byteOffset":12,
		"min":[-0.9832747578620911,
		-0.9865118861198425,
		-0.9832747578620911],
		"max":[0.9832747578620911,
		0.9865118861198425,
		0.9832747578620911]
	},
	{
		"bufferView":15,
		"type":"VEC2",
		"componentType":5126,
		"count":612,
		"byteOffset":24,
		"min":[0.0,
		0.0],
		"max":[1.0,
		1.0]
	},
	{
		"bufferView":16,
		"type":"SCALAR",
		"componentType":5123,
		"count":612,
		"byteOffset":0,
		"min":[0],
		"max":[611]
	},
	{
		"bufferView":17,
		"type":"VEC3",
		"componentType":5126,
		"count":612,
		"byteOffset":0,
		"min":[-0.029930168762803079,
		-0.03849315270781517,
		-0.2506469190120697],
		"max":[0.029930168762803079,
		0.03849315270781517,
		0.2506469190120697]
	},
	{
		"bufferView":17,
		"type":"VEC3",
		"componentType":5126,
		"count":612,
		"byteOffset":12,
		"min":[-0.9832747578620911,
		-0.9865118861198425,
		-0.9832747578620911],
		"max":[0.9832747578620911,
		0.9865118861198425,
		0.9832747578620911]
	},
	{
		"bufferView":17,
		"type":"VEC2",
		"componentType":5126,
		"count":612,
		"byteOffset":24,
		"min":[0.0,
		0.0],
		"max":[1.0,
		1.0]
	},
	{
		"bufferView":18,
		"type":"SCALAR",
		"componentType":5123,
		"count":612,
		"byteOffset":0,
		"min":[0],
		"max":[611]
	},
	{
		"bufferView":19,
		"type":"VEC3",
		"componentType":5126,
		"count":612,
		"byteOffset":0,
		"min":[-0.029930168762803079,
		-0.03849315270781517,
		-0.2506469190120697],
		"max":[0.029930168762803079,
		0.03849315270781517,
		0.2506469190120697]
	},
	{
		"bufferView":19,
		"type":"VEC3",
		"componentType":5126,
		"count":612,
		"byteOffset":12,
		"min":[-0.9832747578620911,
		-0.9865118861198425,
		-0.9832747578620911],
		"max":[0.9832747578620911,
		0.9865118861198425,
		0.9832747578620911]
	},
	{
		"bufferView":19,
		"type":"VEC2",
		"componentType":5126,
		"count":612,
		"byteOffset":24,
		"min":[0.0,
		0.0],
		"max":[1.0,
		1.0]
	},
	{
		"bufferView":20,
		"type":"SCALAR",
		"componentType":5123,
		"count":612,
		"byteOffset":0,
		"min":[0],
		"max":[611]
	},
	{
		"bufferView":21,
		"type":"VEC3",
		"componentType":5126,
		"count":612,
		"byteOffset":0,
		"min":[-0.029930168762803079,
		-0.03849315270781517,
		-0.2506469190120697],
		"max":[0.029930168762803079,
		0.03849315270781517,
		0.2506469190120697]
	},
	{
		"bufferView":21,
		"type":"VEC3",
		"componentType":5126,
		"count":612,
		"byteOffset":12,
		"min":[-0.9832747578620911,
		-0.9865118861198425,
		-0.9832747578620911],
		"max":[0.9832747578620911,
		0.9865118861198425,
		0.9832747578620911]
	},
	{
		"bufferView":21,
		"type":"VEC2",
		"componentType":5126,
		"count":612,
		"byteOffset":24,
		"min":[0.0,
		0.0],
		"max":[1.0,
		1.0]
	},
	{
		"bufferView":22,
		"type":"SCALAR",
		"componentType":5123,
		"count":996,
		"byteOffset":0,
		"min":[0],
		"max":[995]
	},
	{
		"bufferView":23,
		"type":"VEC3",
		"componentType":5126,
		"count":996,
		"byteOffset":0,
		"min":[-0.4438283145427704,
		-0.802070140838623,
		-0.4020000100135803],
		"max":[0.4030402600765228,
		1.0893480777740479,
		0.4020000100135803]
	},
	{
		"bufferView":23,
		"type":"VEC3",
		"componentType":5126,
		"count":996,
		"byteOffset":12,
		"min":[-1.0,
		-1.0,
		-1.0],
		"max":[1.0,
		1.0,
		1.0]
	},
	{
		"bufferView":23,
		"type":"VEC2",
		"componentType":5126,
		"count":996,
		"byteOffset":24,
		"min":[0.0,
		0.0],
		"max":[1.0,
		1.0]
	}],
	"bufferViews":[{
		"buffer":0,
		"byteOffset":0,
		"byteLength":1224,
		"target":34963
	},
	{
		"buffer":0,
		"byteOffset":1224,
		"byteLength":19584,
		"target":34962,
		"byteStride":32
	},
	{
		"buffer":1,
		"byteOffset":0,
		"byteLength":1224,
		"target":34963
	},
	{
		"buffer":1,
		"byteOffset":1224,
		"byteLength":19584,
		"target":34962,
		"byteStride":32
	},
	{
		"buffer":2,
		"byteOffset":0,
		"byteLength":1224,
		"target":34963
	},
	{
		"buffer":2,
		"byteOffset":1224,
		"byteLength":19584,
		"target":34962,
		"byteStride":32
	},
	{
		"buffer":3,
		"byteOffset":0,
		"byteLength":4296,
		"target":34963
	},
	{
		"buffer":3,
		"byteOffset":4296,
		"byteLength":51552,
		"target":34962,
		"byteStride":24
	},
	{
		"buffer":4,
		"byteOffset":0,
		"byteLength":4296,
		"target":34963
	},
	{
		"buffer":4,
		"byteOffset":4296,
		"byteLength":51552,
		"target":34962,
		"byteStride":24
	},
	{
		"buffer":5,
		"byteOffset":0,
		"byteLength":1224,
		"target":34963
	},
	{
		"buffer":5,
		"byteOffset":1224,
		"byteLength":19584,
		"target":34962,
		"byteStride":32
	},
	{
		"buffer":6,
		"byteOffset":0,
		"byteLength":1224,
		"target":34963
	},
	{
		"buffer":6,
		"byteOffset":1224,
		"byteLength":19584,
		"target":34962,
		"byteStride":32
	},
	{
		"buffer":7,
		"byteOffset":0,
		"byteLength":1224,
		"target":34963
	},
	{
		"buffer":7,
		"byteOffset":1224,
		"byteLength":19584,
		"target":34962,
		"byteStride":32
	},
	{
		"buffer":8,
		"byteOffset":0,
		"byteLength":1224,
		"target":34963
	},
	{
		"buffer":8,
		"byteOffset":1224,
		"byteLength":19584,
		"target":34962,
		"byteStride":32
	},
	{
		"buffer":9,
		"byteOffset":0,
		"byteLength":1224,
		"target":34963
	},
	{
		"buffer":9,
		"byteOffset":1224,
		"byteLength":19584,
		"target":34962,
		"byteStride":32
	},
	{
		"buffer":10,
		"byteOffset":0,
		"byteLength":1224,
		"target":34963
	},
	{
		"buffer":10,
		"byteOffset":1224,
		"byteLength":19584,
		"target":34962,
		"byteStride":32
	},
	{
		"buffer":11,
		"byteOffset":0,
		"byteLength":1992,
		"target":34963
	},
	{
		"buffer":11,
		"byteOffset":1992,
		"byteLength":31872,
		"target":34962,
		"byteStride":32
	}],
	"buffers":[{
		"uri":"data:application/octet-stream;base64,",
		"byteLength":20808
	},
	{
		"uri":"data:application/octet-stream;base64,",
		"byteLength":20808
	},
	{
		"uri":"data:application/octet-stream;base64,",
		"byteLength":20808
	},
	{
		"uri":"data:application/octet-stream;base64,",
		"byteLength":55848
	},
	{
		"uri":"data:application/octet-stream;base64,",
		"byteLength":55848
	},
	{
		"uri":"data:application/octet-stream;base64,",
		"byteLength":20808
	},
	{
		"uri":"data:application/octet-stream;base64,",
		"byteLength":20808
	},
	{
		"uri":"data:application/octet-stream;base64,",
		"byteLength":20808
	},
	{
		"uri":"data:application/octet-stream;base64,",
		"byteLength":20808
	},
	{
		"uri":"data:application/octet-stream;base64,",
		"byteLength":20808
	},
	{
		"uri":"data:application/octet-stream;base64,",
		"byteLength":20808
	},
	{
		"uri":"data:application/octet-stream;base64,",
		"byteLength":33864
	}],
	"materials":[{
		"pbrMetallicRoughness":{
			"baseColorFactor":[1.0,
			1.0,
			1.0,
			1.0],
			"metallicFactor":0.35000000000000006,
			"roughnessFactor":0.55
		},
		"emissiveFactor":[0.0,
		0.0,
		0.0],
		"alphaMode":"OPAQUE",
		"doubleSided":false,
		"name":"Wood - Uniform Lacquered 05"
	}]
}